<svg xmlns="http://www.w3.org/2000/svg" viewBox="0 0 420 230" width="420" height="230">
      <rect x="0" y="0" width="420" height="230" rx="24" fill="#ffffff" fill-opacity="0.34"/><rect x="36" y="35" width="180" height="105" rx="10" fill="#f9f7ef" stroke="#739185" stroke-width="5"/><text x="63" y="78" font-size="24" font-weight="800" fill="#315a50" font-family="Noto Sans CJK TC">12 × 4 = ?</text><text x="63" y="112" font-size="20" fill="#6a746e" font-family="Noto Sans CJK TC">應用題</text><rect x="265" y="58" width="105" height="115" rx="12" fill="#d9c5a4"/><path d="M282 84 h70 M282 106 h70 M282 128 h50" stroke="#fffaf0" stroke-width="7" stroke-linecap="round"/><g transform="translate(116 178)">
      <circle cx="0" cy="0" r="22" fill="#f3c7a6"/>
      <path d="M-20 -4 Q0 -27 20 -4 L16 -17 Q0 -30 -16 -17 Z" fill="#3a302a"/>
      <circle cx="-7" cy="1" r="2" fill="#34312f"/><circle cx="7" cy="1" r="2" fill="#34312f"/>
      <path d="M-5 10 Q0 14 5 10" fill="none" stroke="#8e5b4b" stroke-width="2" stroke-linecap="round"/>
      <path d="M-30 31 Q0 15 30 31 L35 78 L-35 78 Z" fill="#4d776b"/>
    </g><g transform="translate(302 188)">
      <circle cx="0" cy="0" r="22" fill="#f3c7a6"/>
      <path d="M-20 -4 Q0 -27 20 -4 L16 -17 Q0 -30 -16 -17 Z" fill="#3a302a"/>
      <circle cx="-7" cy="1" r="2" fill="#34312f"/><circle cx="7" cy="1" r="2" fill="#34312f"/>
      <path d="M-5 10 Q0 14 5 10" fill="none" stroke="#8e5b4b" stroke-width="2" stroke-linecap="round"/>
      <path d="M-30 31 Q0 15 30 31 L35 78 L-35 78 Z" fill="#d69b55"/>
    </g>
    </svg>